<svg width="2312" height="784" viewBox="0 0 2312 784" fill="none" xmlns="http://www.w3.org/2000/svg">
<path d="M772.18 550.33V583.94C772.18 611.07 764.19 636.86 749.08 658.52C735.05 678.62 715.52 694.37 692.59 704.08C676.14 711.05 658.65 714.6 641.15 714.6C634.27 714.6 627.4 714.05 620.57 712.95C594.5 708.74 570.42 696.54 550.93 677.66L430.57 561.08L488.18 502.86L607.91 618.83C629.36 639.6 653.7 631.61 660.65 628.66C667.6 625.72 690.28 613.79 690.28 583.94V550.33H772.18Z" fill="#1351FE"/>
<path d="M772.18 199.63V550.33H690.28V199.63C690.28 169.72 667.55 157.81 660.58 154.87C653.62 151.93 629.22 143.97 607.81 164.84L422.2 345.7H543.64C560.54 345.7 575.66 355.78 582.17 371.37C584.16 376.13 585.22 381.1 585.38 386.05C585.77 397.32 581.57 408.48 573.3 416.82L488.18 502.86L430.57 561.08L328.82 663.92C309.53 683.42 285.45 696.19 259.19 700.84C234.85 705.15 209.7 702.38 186.46 692.83C163.23 683.28 143.4 667.56 129.13 647.37C113.74 625.59 105.6 599.58 105.6 572.15V209.52H187.5V572.15C187.5 602.36 210.54 614.18 217.6 617.08C224.66 619.98 249.36 627.79 270.6 606.32L447.43 427.6H323.46C306.41 427.6 291.23 417.39 284.8 401.59C282.74 396.53 281.72 391.27 281.69 386.05C281.62 374.96 286 364.08 294.3 355.98L378.46 273.97L437.12 216.81L550.65 106.18C570.11 87.21 594.2 74.93 620.29 70.66C644.51 66.7 669.45 69.72 692.41 79.41C715.38 89.1 734.95 104.85 749.02 124.96C764.17 146.63 772.18 172.45 772.18 199.63Z" fill="url(#paint0_linear_11_194)"/>
<path d="M437.12 216.81L378.46 273.97L270.47 165.66C259.2 154.36 246.99 151.24 236.95 151.24C228.03 151.24 220.83 153.7 217.52 155.07C210.47 157.98 187.5 169.82 187.5 199.96V209.52H105.6V199.96C105.6 172.58 113.71 146.61 129.05 124.85C143.28 104.68 163.05 88.96 186.23 79.38C209.41 69.79 234.52 66.97 258.83 71.21C285.06 75.78 309.14 88.45 328.47 107.84L437.12 216.81Z" fill="#1351FE"/>
<path d="M1127.65 516.923C1102.1 516.923 1080.75 510.974 1063.61 499.077C1046.47 487.179 1033.54 470.999 1024.81 450.535C1016.24 430.072 1011.95 406.991 1011.95 381.292C1011.95 355.594 1016.24 332.513 1024.81 312.049C1033.38 291.586 1045.99 275.405 1062.66 263.508C1079.32 251.61 1099.88 245.662 1124.32 245.662C1148.92 245.662 1170.34 251.531 1188.59 263.27C1206.85 275.009 1220.97 291.11 1230.97 311.573C1241.13 331.878 1246.21 355.118 1246.21 381.292C1246.21 406.991 1241.21 430.072 1231.21 450.535C1221.37 470.999 1207.56 487.179 1189.79 499.077C1172.01 510.974 1151.3 516.923 1127.65 516.923ZM1001 509.785V167.138H1066.23V333.703H1058.14V509.785H1001ZM1117.18 459.339C1131.14 459.339 1142.57 455.85 1151.46 448.87C1160.34 441.89 1166.93 432.531 1171.22 420.792C1175.5 408.894 1177.64 395.728 1177.64 381.292C1177.64 367.015 1175.42 354.008 1170.98 342.269C1166.53 330.371 1159.63 320.933 1150.27 313.953C1141.06 306.814 1129.24 303.245 1114.79 303.245C1101.3 303.245 1090.35 306.497 1081.94 313.001C1073.69 319.505 1067.66 328.626 1063.85 340.365C1060.04 352.104 1058.14 365.746 1058.14 381.292C1058.14 396.838 1060.04 410.481 1063.85 422.22C1067.66 433.958 1073.85 443.08 1082.42 449.584C1091.15 456.088 1102.73 459.339 1117.18 459.339Z" fill="#FAFAFA"/>
<path d="M1303.35 509.785V160H1368.11V509.785H1303.35Z" fill="#FAFAFA"/>
<path d="M1472.33 624L1521.85 487.893L1522.8 527.869L1410.91 252.8H1478.04L1553.27 447.442H1538.04L1612.79 252.8H1677.54L1532.32 624H1472.33Z" fill="#FAFAFA"/>
<path d="M1884.35 509.785C1866.57 513.116 1849.12 514.544 1831.98 514.068C1814.99 513.75 1799.76 510.816 1786.27 505.264C1772.94 499.553 1762.78 490.431 1755.79 477.9C1749.45 466.161 1746.11 454.263 1745.8 442.207C1745.48 429.992 1745.32 416.191 1745.32 400.804V181.415H1810.07V396.997C1810.07 406.991 1810.15 416.033 1810.31 424.123C1810.63 432.055 1812.3 438.4 1815.31 443.159C1821.02 452.201 1830.15 457.119 1842.69 457.912C1855.23 458.705 1869.11 458.07 1884.35 456.008V509.785ZM1701.52 302.769V252.8H1884.35V302.769H1701.52Z" fill="#FAFAFA"/>
<path d="M1917.84 509.785V501.694L2044.01 308.956H1932.12V252.8H2144V260.89L2018.3 453.629H2139.24V509.785H1917.84Z" fill="#FAFAFA"/>
<defs>
<linearGradient id="paint0_linear_11_194" x1="64.4501" y1="400.032" x2="808.973" y2="384.236" gradientUnits="userSpaceOnUse">
<stop offset="0.2" stop-color="#1353FF"/>
<stop offset="0.32" stop-color="#0A74FF"/>
<stop offset="0.45" stop-color="#0291FF"/>
<stop offset="0.52" stop-color="#009CFF"/>
<stop offset="0.58" stop-color="#0197FF"/>
<stop offset="0.65" stop-color="#0488FF"/>
<stop offset="0.72" stop-color="#0B71FF"/>
<stop offset="0.8" stop-color="#1353FF"/>
</linearGradient>
</defs>
</svg>
